<svg width="70" height="70" viewBox="0 0 70 70" fill="none" xmlns="http://www.w3.org/2000/svg">
<path d="M40.5029 39.4157C40.5029 43.1432 37.0119 43.057 36.6428 43.057H29.5333V35.8772H36.6428C40.3834 35.8772 40.5029 38.681 40.5029 39.4157ZM36.0952 32.9883C36.1541 32.9883 39.4737 33.0762 39.4737 29.797C39.4737 28.4329 39.1652 26.6443 36.0952 26.6443H29.5333V32.9883H36.0952ZM54.1875 21.3753V47.6247C54.1824 49.3637 53.4893 51.03 52.2597 52.2597C51.03 53.4893 49.3637 54.1824 47.6247 54.1875H21.3753C19.6363 54.1824 17.97 53.4893 16.7403 52.2597C15.5107 51.03 14.8176 49.3637 14.8125 47.6247V21.3753C14.8176 19.6363 15.5107 17.97 16.7403 16.7403C17.97 15.5107 19.6363 14.8176 21.3753 14.8125H47.6247C49.3637 14.8176 51.03 15.5107 52.2597 16.7403C53.4893 17.97 54.1824 19.6363 54.1875 21.3753ZM44.5239 39.9369C44.5239 38.0411 43.9395 34.8138 40.2129 34.0175V33.9533C42.2265 33.0937 43.4947 31.4704 43.4947 29.0631C43.4947 28.4479 43.6705 23.3695 36.6744 23.3695H25.5123V46.338C36.7825 46.338 37.8056 46.4856 39.8912 45.8361C41.1401 45.4477 44.5239 44.2559 44.5239 39.9369Z" fill="white"/>
</svg>
