<svg width="70" height="70" viewBox="0 0 70 70" fill="none" xmlns="http://www.w3.org/2000/svg">
<path d="M42.9707 28.0029C44.9602 28.0029 46.8682 27.2126 48.275 25.8058C49.6818 24.399 50.4722 22.491 50.4722 20.5015C50.4722 18.512 49.6818 16.6039 48.275 15.1971C46.8682 13.7903 44.9602 13 42.9707 13H27.9678C25.9794 13 24.0725 13.7899 22.6665 15.1958C21.2606 16.6018 20.4707 18.5087 20.4707 20.4971C20.4707 22.4854 21.2606 24.3923 22.6665 25.7983C24.0725 27.2043 25.9794 27.9941 27.9678 27.9941C25.9783 27.9941 24.0702 28.7845 22.6634 30.1913C21.2566 31.5981 20.4663 33.5061 20.4663 35.4956C20.4663 37.4851 21.2566 39.3931 22.6634 40.7999C24.0702 42.2067 25.9783 42.9971 27.9678 42.9971C26.4841 42.9962 25.0335 43.4353 23.7994 44.2589C22.5654 45.0824 21.6032 46.2534 21.0346 47.6238C20.466 48.9942 20.3166 50.5024 20.6052 51.9577C20.8938 53.413 21.6075 54.75 22.6559 55.7998C23.7044 56.8495 25.0406 57.5647 26.4956 57.855C27.9506 58.1453 29.459 57.9976 30.83 57.4307C32.2011 56.8637 33.3732 55.9029 34.1982 54.6698C35.0232 53.4367 35.464 51.9866 35.4648 50.5029V28.0029H42.9707ZM42.9707 28.0029C41.4879 28.0029 40.0384 28.4426 38.8056 29.2664C37.5727 30.0902 36.6118 31.2611 36.0443 32.631C35.4769 34.0009 35.3284 35.5083 35.6177 36.9626C35.907 38.4169 36.621 39.7527 37.6695 40.8012C38.718 41.8497 40.0538 42.5637 41.5081 42.853C42.9624 43.1423 44.4698 42.9938 45.8397 42.4264C47.2096 41.859 48.3805 40.898 49.2043 39.6651C50.0281 38.4323 50.4678 36.9828 50.4678 35.5C50.4675 33.5117 49.6776 31.605 48.2717 30.199C46.8658 28.7931 44.959 28.0032 42.9707 28.0029Z" fill="white"/>
</svg>
