<svg width="70" height="70" viewBox="0 0 70 70" fill="none" xmlns="http://www.w3.org/2000/svg">
<g clip-path="url(#clip0_70_13)">
<path d="M55.9769 25.1738L55.7838 24.7425L55.4669 25.095C54.7019 25.965 53.7269 26.6325 52.645 27.0375L52.3469 27.1519L52.4706 27.4425C53.4014 29.6756 53.8794 32.0714 53.8769 34.4907C53.8769 44.625 45.6325 52.8769 35.4906 52.8769C25.3488 52.8769 17.1119 44.6325 17.1119 34.4982C17.1119 24.3638 25.3656 16.1119 35.4981 16.1119C38.2487 16.1119 40.9038 16.7101 43.3731 17.8876L43.6637 18.0282L43.7875 17.7376C44.2449 16.6731 44.957 15.7375 45.8613 15.0132L46.2306 14.7151L45.8088 14.4957C42.6229 12.8476 39.0868 11.9916 35.5 12.0001C23.0894 12.0001 13 22.0894 13 34.5C13 46.9106 23.0894 57 35.5 57C47.9106 57 58 46.9106 58 34.5C58 31.2563 57.3231 28.1194 55.9788 25.1757L55.9769 25.1738ZM35.4981 24.2419C32.7789 24.2449 30.1719 25.3264 28.2491 27.2492C26.3264 29.172 25.2449 31.7789 25.2419 34.4982C25.2449 37.2174 26.3264 39.8244 28.2491 41.7471C30.1719 43.6699 32.7789 44.7514 35.4981 44.7544C38.2173 44.7514 40.8243 43.6699 42.7471 41.7471C44.6699 39.8244 45.7514 37.2174 45.7544 34.4982C45.7499 31.7794 44.6679 29.1733 42.7455 27.2508C40.823 25.3284 38.2169 24.2464 35.4981 24.2419ZM54.895 20.4788C54.895 21.0929 54.774 21.701 54.539 22.2683C54.304 22.8357 53.9596 23.3512 53.5254 23.7854C53.0911 24.2196 52.5756 24.5641 52.0083 24.7991C51.4409 25.0341 50.8328 25.155 50.2188 25.155C49.6047 25.155 48.9966 25.0341 48.4292 24.7991C47.8619 24.5641 47.3464 24.2196 46.9121 23.7854C46.4779 23.3512 46.1335 22.8357 45.8985 22.2683C45.6635 21.701 45.5425 21.0929 45.5425 20.4788C45.5425 19.2386 46.0352 18.0492 46.9121 17.1722C47.7891 16.2952 48.9785 15.8026 50.2188 15.8026C51.459 15.8026 52.6484 16.2952 53.5254 17.1722C54.4023 18.0492 54.895 19.2386 54.895 20.4788Z" fill="white"/>
</g>
<defs>
<clipPath id="clip0_70_13">
<rect width="45" height="45" fill="white" transform="translate(13 12)"/>
</clipPath>
</defs>
</svg>
