<svg width="70" height="70" viewBox="0 0 70 70" fill="none" xmlns="http://www.w3.org/2000/svg">
<g clip-path="url(#clip0_70_11)">
<path d="M45.1528 41.7286C46.2995 40.9455 47.8909 40.2676 47.8909 40.2676C47.8909 40.2676 43.3626 41.0858 38.8576 41.4598C33.3464 41.9156 27.4256 42.0091 24.4536 41.6117C17.4212 40.6767 28.3149 38.0937 28.3149 38.0937C28.3149 38.0937 24.0908 37.8132 18.8838 40.3144C12.7407 43.2831 34.0953 44.6389 45.1528 41.7286ZM35.1601 37.9768C32.9369 32.986 25.4365 28.6031 35.1601 20.9358C47.2895 11.3751 41.0691 5.15715 41.0691 5.15715C43.5849 15.0334 32.2231 18.0255 28.116 24.1617C25.3194 28.3576 29.485 32.8575 35.1601 37.9768ZM48.5696 17.3827C48.5813 17.3827 28.0692 22.502 37.863 33.7691C40.7532 37.0885 37.1025 40.0806 37.1025 40.0806C37.1025 40.0806 44.4391 36.2937 41.0691 31.5601C37.9215 27.1421 35.5111 24.9448 48.5696 17.3827ZM47.8558 48.9985C47.7918 49.1098 47.7131 49.2121 47.6218 49.3024C62.6343 45.3635 57.1114 35.4054 49.9386 37.93C49.5512 38.0722 49.2165 38.3291 48.9791 38.6664C49.398 38.5149 49.8284 38.3977 50.2662 38.3157C53.8936 37.556 59.1006 43.1662 47.8558 48.9985ZM53.374 56.28C53.374 56.28 55.0707 57.6709 51.5136 58.7579C44.7386 60.8033 23.3373 61.4227 17.3931 58.8397C15.2518 57.9163 19.2653 56.619 20.529 56.3502C21.8395 56.0697 22.6001 56.1164 22.6001 56.1164C20.2248 54.445 7.23654 59.4007 16.0007 60.8149C39.899 64.6953 59.5756 59.0734 53.374 56.28ZM27.215 51.4412C18.0062 54.0126 32.8199 59.3189 44.5444 54.3048C43.4009 53.861 42.2971 53.3215 41.2447 52.6919C36.0143 53.6853 33.5921 53.7555 28.8415 53.2178C24.9216 52.7737 27.215 51.4412 27.215 51.4412ZM48.2536 62.8019C39.0449 64.5317 27.6831 64.333 20.9549 63.2227C20.9549 63.211 22.3357 64.3564 29.4265 64.8122C40.215 65.5018 56.7837 64.4265 57.1699 59.3306C57.1699 59.3306 56.421 61.2591 48.2536 62.8019ZM43.1519 46.4154C36.2249 47.7479 32.2114 47.7128 27.1448 47.1869C23.2249 46.7778 25.7875 44.8843 25.7875 44.8843C15.6309 48.2504 31.4274 52.0607 45.6209 47.9115C44.7035 47.588 43.863 47.0786 43.1519 46.4154Z" fill="white"/>
</g>
<defs>
<clipPath id="clip0_70_11">
<rect width="44" height="59" fill="white" transform="translate(13 6)"/>
</clipPath>
</defs>
</svg>
