<svg width="70" height="70" viewBox="0 0 70 70" fill="none" xmlns="http://www.w3.org/2000/svg">
<g clip-path="url(#clip0_70_36)">
<path d="M57.3321 23.1802C57.3252 23.1597 57.3169 23.1398 57.3075 23.1204C57.2949 23.0826 57.2793 23.0459 57.2609 23.0105C57.2466 22.9886 57.2308 22.9677 57.2134 22.9481C57.1941 22.9193 57.173 22.8917 57.1501 22.8655C57.1299 22.8462 57.1044 22.8304 57.0825 22.8128C57.0574 22.7912 57.031 22.7712 57.0034 22.753L48.543 17.8821C48.4361 17.8204 48.3149 17.7879 48.1915 17.7879C48.068 17.7879 47.9468 17.8204 47.8399 17.8821L39.3778 22.7557C39.3506 22.7741 39.3248 22.7943 39.3004 22.8163C39.2765 22.8324 39.2536 22.85 39.2319 22.869C39.2089 22.8947 39.1877 22.9221 39.1686 22.9508C39.1537 22.9719 39.1343 22.9903 39.1211 23.0132C39.1034 23.0487 39.0881 23.0854 39.0754 23.123C39.0684 23.1433 39.057 23.1617 39.0508 23.1828C39.0347 23.2424 39.0264 23.3039 39.0262 23.3656V32.6152L31.9756 36.6749V18.5756C31.9758 18.5135 31.9675 18.4517 31.951 18.3919C31.9458 18.3708 31.9334 18.3523 31.9264 18.3321C31.9141 18.2946 31.8989 18.2582 31.8807 18.2231C31.8684 18.2003 31.8482 18.1818 31.8333 18.1599C31.8139 18.131 31.7928 18.1034 31.77 18.0772C31.7481 18.0585 31.7252 18.0409 31.7014 18.0245C31.6768 18.0031 31.651 17.9832 31.6241 17.9647L23.1611 13.0938C23.0542 13.0321 22.9329 12.9996 22.8095 12.9996C22.6861 12.9996 22.5648 13.0321 22.458 13.0938L13.9967 17.9647C13.9693 17.9827 13.9434 18.003 13.9194 18.0254C13.8951 18.0415 13.872 18.0591 13.85 18.0781C13.8272 18.1038 13.8064 18.1312 13.7876 18.1599C13.7717 18.1818 13.7524 18.2003 13.7392 18.2231C13.7212 18.2581 13.7062 18.2946 13.6944 18.3321C13.6848 18.3513 13.6763 18.3709 13.6689 18.391C13.6527 18.4512 13.6445 18.5133 13.6443 18.5756V47.5531C13.644 47.6769 13.6763 47.7985 13.738 47.9058C13.7997 48.013 13.8887 48.1021 13.9959 48.164L30.9148 57.9058C30.9524 57.9247 30.9915 57.9406 31.0317 57.9532C31.0501 57.9603 31.0677 57.9708 31.0871 57.9761C31.2051 58.0077 31.3294 58.0077 31.4474 57.9761C31.465 57.9717 31.4799 57.962 31.4958 57.9567C31.5382 57.9434 31.5794 57.9263 31.6188 57.9058L48.543 48.164C48.6502 48.1021 48.7391 48.013 48.8009 47.9058C48.8626 47.7985 48.8949 47.6769 48.8946 47.5531V38.3018L57.0016 33.6339C57.1094 33.5716 57.1988 33.4819 57.2606 33.3738C57.3223 33.2657 57.3543 33.1431 57.3532 33.0187V23.3639C57.3537 23.302 57.3466 23.2403 57.3321 23.1802ZM22.8086 14.5186L29.8566 18.5747L22.8078 22.6335L15.7607 18.5756L22.8086 14.5186ZM30.565 19.792V37.4861L26.4754 39.8407L23.5144 41.5458V23.8543L27.604 21.4997L30.565 19.792ZM30.565 56.0715L15.0541 47.1453V19.7955L18.0151 21.4988L22.1038 23.8543V42.7666C22.1055 42.7932 22.1091 42.8196 22.1143 42.8457C22.1164 42.8806 22.1211 42.9152 22.1284 42.9494C22.1373 42.9767 22.1485 43.0031 22.1618 43.0285C22.1716 43.0588 22.1839 43.0882 22.1987 43.1164C22.2149 43.1403 22.2325 43.1631 22.2514 43.185C22.269 43.2109 22.2884 43.2356 22.3094 43.2588C22.3296 43.2781 22.3551 43.2922 22.3771 43.3098C22.4011 43.3306 22.4263 43.35 22.4527 43.3678L30.5553 47.9539L30.565 56.0715ZM31.2681 46.7401L24.2316 42.7569L31.6223 38.5022L39.7311 33.8343L46.7738 37.8887L41.6058 40.8383L31.2681 46.7401ZM47.4857 47.1418L31.9739 56.0759V47.9627L43.4629 41.4061L47.4857 39.1077V47.1418ZM47.4857 36.6714L44.5247 34.9725L40.4351 32.6179V24.5829L43.3961 26.288L47.4857 28.6443V36.6714ZM48.1888 27.4183L41.14 23.3604L48.1888 19.3033L55.2359 23.3595L48.1888 27.4183ZM48.8919 36.6714V28.6443L52.9903 26.288L55.9504 24.5829V32.6152L48.8919 36.6714Z" fill="white"/>
</g>
<defs>
<clipPath id="clip0_70_36">
<rect width="45" height="45" fill="white" transform="translate(13 13)"/>
</clipPath>
</defs>
</svg>
