<svg width="70" height="70" viewBox="0 0 70 70" fill="none" xmlns="http://www.w3.org/2000/svg">
<path d="M49.7559 27.4876C49.2812 27.3275 48.8066 27.1762 48.332 27.0339C48.4111 26.7047 48.4814 26.3756 48.5518 26.0464C49.6328 20.7443 48.9209 16.483 46.5215 15.0774C44.21 13.7341 40.4395 15.1308 36.625 18.4935C36.2471 18.8227 35.8779 19.1697 35.5264 19.5166C35.2891 19.2853 35.043 19.054 34.7969 18.8316C30.7979 15.2375 26.79 13.7252 24.3906 15.1397C22.0879 16.4919 21.4023 20.5041 22.3691 25.5215C22.4658 26.0197 22.5713 26.509 22.6943 27.0072C22.1318 27.1673 21.5781 27.3453 21.0596 27.5321C16.3662 29.1779 13 31.7756 13 34.4622C13 37.2379 16.5859 40.0224 21.4639 41.7126C21.8594 41.8461 22.2549 41.9795 22.6592 42.0952C22.5273 42.629 22.4131 43.1538 22.3076 43.6965C21.3848 48.6339 22.1055 52.5482 24.4082 53.8916C26.7812 55.2794 30.7715 53.856 34.6562 50.4131C34.9639 50.1374 35.2715 49.8527 35.5791 49.5502C35.9658 49.9327 36.3701 50.2975 36.7744 50.6533C40.5361 53.9271 44.2539 55.2527 46.5479 53.9093C48.9209 52.5215 49.6943 48.3136 48.6924 43.1894C48.6133 42.798 48.5254 42.3977 48.4287 41.9884C48.71 41.9084 48.9824 41.8194 49.2549 41.7304C54.3262 40.0313 58 37.2823 58 34.4622C58 31.7667 54.5371 29.1512 49.7559 27.4876ZM37.8643 19.9347C41.1338 17.0524 44.1836 15.9225 45.5723 16.7321C47.0576 17.595 47.6289 21.0823 46.6973 25.6639C46.6357 25.9664 46.5742 26.2599 46.4951 26.5535C44.5439 26.1087 42.5664 25.7884 40.5801 25.6105C39.4375 23.9558 38.1895 22.3723 36.8359 20.8866C37.1787 20.5575 37.5127 20.2461 37.8643 19.9347ZM27.6953 39.0794C28.1436 39.8533 28.6006 40.6273 29.084 41.3835C27.7129 41.2323 26.3506 41.0098 25.0059 40.7163C25.3926 39.4352 25.876 38.1097 26.4385 36.7575C26.8428 37.5403 27.2559 38.3143 27.6953 39.0794ZM25.0322 28.3772C26.2979 28.0926 27.6426 27.8612 29.04 27.6833C28.5742 28.4217 28.1172 29.1779 27.6865 29.943C27.2559 30.6991 26.834 31.4731 26.4385 32.256C25.8848 30.9304 25.4189 29.6316 25.0322 28.3772ZM27.4404 34.5067C28.0205 33.279 28.6533 32.0781 29.3213 30.8949C29.9893 29.7117 30.71 28.564 31.4658 27.4342C32.7842 27.3364 34.1289 27.283 35.5 27.283C36.8711 27.283 38.2246 27.3364 39.5342 27.4342C40.2812 28.5552 40.9932 29.7028 41.6699 30.8771C42.3467 32.0514 42.9795 33.2524 43.5771 34.4711C42.9883 35.6988 42.3555 36.9087 41.6787 38.1008C41.0107 39.284 40.2988 40.4316 39.5518 41.5703C38.2422 41.6682 36.8799 41.7126 35.5 41.7126C34.1201 41.7126 32.7842 41.6682 31.4922 41.5881C30.7275 40.4583 30.0068 39.3018 29.3301 38.1186C28.6533 36.9354 28.0293 35.7344 27.4404 34.5067ZM43.3135 39.0616C43.7617 38.2787 44.1836 37.4869 44.5967 36.6863C45.1592 37.9762 45.6514 39.284 46.082 40.6273C44.7197 40.9387 43.3398 41.1789 41.9512 41.339C42.4258 40.5917 42.874 39.8266 43.3135 39.0616ZM44.5791 32.256C44.166 31.4731 43.7441 30.6902 43.3047 29.9252C42.874 29.169 42.4258 28.4217 41.96 27.6833C43.375 27.8612 44.7285 28.1014 45.9941 28.395C45.5898 29.7117 45.1152 30.9927 44.5791 32.256ZM35.5176 22.2477C36.4404 23.2619 37.3105 24.3295 38.1191 25.4326C36.3789 25.3525 34.6299 25.3525 32.8896 25.4326C33.751 24.285 34.6387 23.2174 35.5176 22.2477ZM25.3223 16.7944C26.7988 15.9225 30.0771 17.168 33.5312 20.2639C33.751 20.4596 33.9707 20.6731 34.1992 20.8866C32.8369 22.3723 31.5801 23.9558 30.4287 25.6105C28.4424 25.7884 26.4736 26.0998 24.5225 26.5357C24.4082 26.082 24.3115 25.6194 24.2148 25.1568C23.3887 20.851 23.9336 17.6039 25.3223 16.7944ZM23.1689 40.2448C22.7998 40.138 22.4395 40.0224 22.0791 39.8978C20.207 39.3018 18.0801 38.3588 16.542 37.1222C15.6543 36.4995 15.0566 35.5387 14.8896 34.4622C14.8896 32.8342 17.667 30.7525 21.6748 29.338C22.1758 29.1601 22.6855 29 23.1953 28.8487C23.793 30.7792 24.5137 32.6741 25.3486 34.5067C24.5049 36.366 23.7754 38.2876 23.1689 40.2448ZM33.417 48.9631C31.9668 50.3064 30.2881 51.3739 28.46 52.1034C27.4844 52.5749 26.3594 52.6194 25.3574 52.2191C23.96 51.4006 23.3799 48.2603 24.1709 44.0346C24.2676 43.5364 24.373 43.0382 24.4961 42.5489C26.4648 42.9759 28.4512 43.2695 30.4639 43.4207C31.624 45.0843 32.8984 46.6767 34.2607 48.1713C33.9795 48.4471 33.6982 48.714 33.417 48.9631ZM35.5703 46.8013C34.6738 45.8227 33.7773 44.7374 32.9072 43.572C33.751 43.6075 34.6211 43.6253 35.5 43.6253C36.4053 43.6253 37.293 43.6075 38.1719 43.5631C37.3633 44.6929 36.4932 45.7693 35.5703 46.8013ZM47.0576 49.4701C46.9785 50.5555 46.4512 51.5696 45.6074 52.2547C44.21 53.0731 41.2305 52.0056 38.0137 49.2122C37.6445 48.8919 37.2754 48.5449 36.8975 48.1891C38.2422 46.6856 39.4814 45.0932 40.6064 43.4207C42.6191 43.2517 44.623 42.9403 46.6006 42.4866C46.6885 42.8514 46.7676 43.2161 46.8379 43.572C47.2686 45.4935 47.3389 47.4952 47.0576 49.4701ZM48.6572 39.9067C48.4111 39.9868 48.165 40.0668 47.9102 40.138C47.2949 38.1986 46.5391 36.3038 45.6689 34.4622C46.5127 32.6474 47.2246 30.7792 47.8223 28.8665C48.2793 29 48.7188 29.1423 49.1406 29.2846C53.2363 30.708 56.1104 32.8253 56.1104 34.4444C56.1104 36.1881 53.043 38.4388 48.6572 39.9067ZM35.5 38.5723C37.7236 38.5723 39.5254 36.7486 39.5254 34.4978C39.5254 32.2471 37.7236 30.4234 35.5 30.4234C33.2764 30.4234 31.4746 32.2471 31.4746 34.4978C31.4746 36.7486 33.2764 38.5723 35.5 38.5723Z" fill="white"/>
</svg>
