<svg width="45" height="45" viewBox="0 0 45 45" fill="none" xmlns="http://www.w3.org/2000/svg">
<g clip-path="url(#clip0_58_13)">
<path d="M23 8C14.7125 8 8 14.7125 8 23C8 29.6375 12.2937 35.2438 18.2562 37.2313C19.0062 37.3625 19.2875 36.9125 19.2875 36.5188C19.2875 36.1625 19.2688 34.9813 19.2688 33.725C15.5 34.4188 14.525 32.8063 14.225 31.9625C14.0563 31.5313 13.325 30.2 12.6875 29.8438C12.1625 29.5625 11.4125 28.8688 12.6687 28.85C13.85 28.8313 14.6937 29.9375 14.975 30.3875C16.325 32.6562 18.4813 32.0188 19.3438 31.625C19.475 30.65 19.8687 29.9938 20.3 29.6188C16.9625 29.2438 13.475 27.95 13.475 22.2125C13.475 20.5813 14.0563 19.2313 15.0125 18.1813C14.8625 17.8063 14.3375 16.2688 15.1625 14.2063C15.1625 14.2063 16.4187 13.8125 19.2875 15.7438C20.4875 15.4063 21.7625 15.2375 23.0375 15.2375C24.3125 15.2375 25.5875 15.4063 26.7875 15.7438C29.6562 13.7938 30.9125 14.2063 30.9125 14.2063C31.7375 16.2688 31.2125 17.8063 31.0625 18.1813C32.0188 19.2313 32.6 20.5625 32.6 22.2125C32.6 27.9688 29.0938 29.2438 25.7563 29.6188C26.3 30.0875 26.7688 30.9875 26.7688 32.3938C26.7688 34.4 26.75 36.0125 26.75 36.5188C26.75 36.9125 27.0312 37.3813 27.7812 37.2313C30.7592 36.2262 33.3469 34.3125 35.18 31.7595C37.0132 29.2066 37.9995 26.1429 38 23C38 14.7125 31.2875 8 23 8Z" fill="#3F6E78"/>
</g>
<defs>
<clipPath id="clip0_58_13">
<rect width="30" height="30" fill="white" transform="translate(8 8)"/>
</clipPath>
</defs>
</svg>
