<svg width="45" height="45" viewBox="0 0 45 45" fill="none" xmlns="http://www.w3.org/2000/svg">
<g clip-path="url(#clip0_58_14)">
<path d="M23 8C18.9294 8 18.4175 8.01875 16.8181 8.09C15.2188 8.165 14.1294 8.41625 13.175 8.7875C12.1739 9.16404 11.2672 9.75467 10.5181 10.5181C9.75514 11.2676 9.16458 12.1742 8.7875 13.175C8.41625 14.1275 8.16313 15.2187 8.09 16.8125C8.01875 18.4156 8 18.9256 8 23.0019C8 27.0744 8.01875 27.5844 8.09 29.1838C8.165 30.7812 8.41625 31.8706 8.7875 32.825C9.17188 33.8112 9.68375 34.6475 10.5181 35.4819C11.3506 36.3162 12.1869 36.83 13.1731 37.2125C14.1294 37.5837 15.2169 37.8369 16.8144 37.91C18.4156 37.9812 18.9256 38 23 38C27.0744 38 27.5825 37.9812 29.1838 37.91C30.7794 37.835 31.8725 37.5837 32.8269 37.2125C33.8273 36.8358 34.7334 36.2451 35.4819 35.4819C36.3162 34.6475 36.8281 33.8112 37.2125 32.825C37.5819 31.8706 37.835 30.7812 37.91 29.1838C37.9812 27.5844 38 27.0744 38 23C38 18.9256 37.9812 18.4156 37.91 16.8144C37.835 15.2188 37.5819 14.1275 37.2125 13.175C36.8355 12.1742 36.2449 11.2675 35.4819 10.5181C34.7331 9.75439 33.8262 9.16371 32.825 8.7875C31.8687 8.41625 30.7775 8.16313 29.1819 8.09C27.5806 8.01875 27.0725 8 22.9963 8H23.0019H23ZM21.6556 10.7038H23.0019C27.0069 10.7038 27.4812 10.7169 29.0619 10.79C30.5244 10.8556 31.3194 11.1012 31.8481 11.3056C32.5475 11.5775 33.0481 11.9037 33.5731 12.4288C34.0981 12.9538 34.4225 13.4525 34.6944 14.1537C34.9006 14.6806 35.1444 15.4756 35.21 16.9381C35.2831 18.5188 35.2981 18.9931 35.2981 22.9963C35.2981 26.9994 35.2831 27.4756 35.21 29.0562C35.1444 30.5187 34.8988 31.3119 34.6944 31.8406C34.4539 32.4919 34.07 33.0808 33.5712 33.5637C33.0462 34.0887 32.5475 34.4131 31.8463 34.685C31.3213 34.8913 30.5262 35.135 29.0619 35.2025C27.4812 35.2738 27.0069 35.2906 23.0019 35.2906C18.9969 35.2906 18.5206 35.2738 16.94 35.2025C15.4775 35.135 14.6844 34.8913 14.1556 34.685C13.5041 34.4449 12.9146 34.0617 12.4306 33.5637C11.9314 33.0801 11.547 32.4906 11.3056 31.8387C11.1012 31.3119 10.8556 30.5169 10.79 29.0544C10.7188 27.4738 10.7038 26.9994 10.7038 22.9925C10.7038 18.9875 10.7188 18.515 10.79 16.9344C10.8575 15.4719 11.1013 14.6769 11.3075 14.1481C11.5794 13.4488 11.9056 12.9481 12.4306 12.4231C12.9556 11.8981 13.4544 11.5738 14.1556 11.3019C14.6844 11.0956 15.4775 10.8519 16.94 10.7844C18.3238 10.7206 18.86 10.7019 21.6556 10.7V10.7038ZM31.0081 13.1937C30.7717 13.1937 30.5377 13.2403 30.3193 13.3308C30.1009 13.4212 29.9025 13.5538 29.7353 13.721C29.5682 13.8881 29.4356 14.0865 29.3451 14.3049C29.2547 14.5233 29.2081 14.7574 29.2081 14.9938C29.2081 15.2301 29.2547 15.4642 29.3451 15.6826C29.4356 15.901 29.5682 16.0994 29.7353 16.2665C29.9025 16.4337 30.1009 16.5663 30.3193 16.6567C30.5377 16.7472 30.7717 16.7937 31.0081 16.7937C31.4855 16.7937 31.9434 16.6041 32.2809 16.2665C32.6185 15.929 32.8081 15.4711 32.8081 14.9938C32.8081 14.5164 32.6185 14.0585 32.2809 13.721C31.9434 13.3834 31.4855 13.1937 31.0081 13.1937ZM23.0019 15.2975C21.9801 15.2816 20.9654 15.469 20.0168 15.849C19.0682 16.229 18.2047 16.7939 17.4765 17.5108C16.7483 18.2277 16.1701 19.0823 15.7753 20.0249C15.3806 20.9674 15.1773 21.9791 15.1773 23.0009C15.1773 24.0228 15.3806 25.0345 15.7753 25.977C16.1701 26.9196 16.7483 27.7742 17.4765 28.4911C18.2047 29.208 19.0682 29.7729 20.0168 30.1529C20.9654 30.5328 21.9801 30.7203 23.0019 30.7044C25.0241 30.6728 26.9529 29.8473 28.3718 28.4061C29.7908 26.9649 30.5861 25.0234 30.5861 23.0009C30.5861 20.9784 29.7908 19.037 28.3718 17.5958C26.9529 16.1545 25.0241 15.3291 23.0019 15.2975ZM23.0019 17.9994C24.3281 17.9994 25.6001 18.5262 26.5379 19.464C27.4757 20.4018 28.0025 21.6738 28.0025 23C28.0025 24.3262 27.4757 25.5982 26.5379 26.536C25.6001 27.4738 24.3281 28.0006 23.0019 28.0006C21.6756 28.0006 20.4037 27.4738 19.4659 26.536C18.5281 25.5982 18.0013 24.3262 18.0013 23C18.0013 21.6738 18.5281 20.4018 19.4659 19.464C20.4037 18.5262 21.6756 17.9994 23.0019 17.9994Z" fill="#3F6E78"/>
</g>
<defs>
<clipPath id="clip0_58_14">
<rect width="30" height="30" fill="white" transform="translate(8 8)"/>
</clipPath>
</defs>
</svg>
