<svg width="45" height="45" viewBox="0 0 45 45" fill="none" xmlns="http://www.w3.org/2000/svg">
<g clip-path="url(#clip0_58_11)">
<path d="M8 10.1488C8 8.96188 8.98625 8 10.2031 8H35.7969C37.0138 8 38 8.96188 38 10.1488V35.8512C38 37.0381 37.0138 38 35.7969 38H10.2031C8.98625 38 8 37.0381 8 35.8512V10.1488ZM17.2681 33.1138V19.5669H12.7663V33.1138H17.2681ZM15.0181 17.7163C16.5875 17.7163 17.5644 16.6775 17.5644 15.3763C17.5363 14.0469 16.5894 13.0363 15.0481 13.0363C13.5069 13.0363 12.5 14.0487 12.5 15.3763C12.5 16.6775 13.4769 17.7163 14.9881 17.7163H15.0181ZM24.2206 33.1138V25.5481C24.2206 25.1431 24.2506 24.7381 24.3706 24.4494C24.695 23.6412 25.4356 22.8031 26.6806 22.8031C28.31 22.8031 28.9606 24.0444 28.9606 25.8669V33.1138H33.4625V25.3438C33.4625 21.1812 31.2425 19.2463 28.28 19.2463C25.8913 19.2463 24.8206 20.5588 24.2206 21.4831V21.53H24.1906C24.2006 21.5143 24.2106 21.4987 24.2206 21.4831V19.5669H19.7206C19.7769 20.8381 19.7206 33.1138 19.7206 33.1138H24.2206Z" fill="#3F6E78"/>
</g>
<defs>
<clipPath id="clip0_58_11">
<rect width="30" height="30" fill="white" transform="translate(8 8)"/>
</clipPath>
</defs>
</svg>
