<svg width="45" height="45" viewBox="0 0 45 45" fill="none" xmlns="http://www.w3.org/2000/svg">
<path d="M13.625 11.75C13.625 10.7554 14.0201 9.80161 14.7233 9.09835C15.4266 8.39509 16.3804 8 17.375 8H28.625C29.6196 8 30.5734 8.39509 31.2766 9.09835C31.9799 9.80161 32.375 10.7554 32.375 11.75V34.25C32.375 35.2446 31.9799 36.1984 31.2766 36.9016C30.5734 37.6049 29.6196 38 28.625 38H17.375C16.3804 38 15.4266 37.6049 14.7233 36.9016C14.0201 36.1984 13.625 35.2446 13.625 34.25V11.75ZM24.875 32.375C24.875 31.8777 24.6775 31.4008 24.3258 31.0492C23.9742 30.6975 23.4973 30.5 23 30.5C22.5027 30.5 22.0258 30.6975 21.6742 31.0492C21.3225 31.4008 21.125 31.8777 21.125 32.375C21.125 32.8723 21.3225 33.3492 21.6742 33.7008C22.0258 34.0525 22.5027 34.25 23 34.25C23.4973 34.25 23.9742 34.0525 24.3258 33.7008C24.6775 33.3492 24.875 32.8723 24.875 32.375Z" fill="#3F6E78"/>
</svg>
