<svg width="84" height="73" viewBox="0 0 84 73" fill="none" xmlns="http://www.w3.org/2000/svg">
<g filter="url(#filter0_d_6_186)">
<path d="M4.48378 31L22.8985 0.954875C23.2621 0.361632 23.9079 0 24.6037 0H59.3638C60.0596 0 60.7054 0.361632 61.069 0.954875L79.4838 31C80.102 32.1743 80.1036 32.8263 79.4838 34L61.0709 63.5575C60.7057 64.1437 60.064 64.5 59.3733 64.5H24.5942C23.9036 64.5 23.2618 64.1437 22.8966 63.5575L4.48378 34C3.81797 32.8291 3.85985 32.171 4.48378 31Z" fill="#599FAE"/>
</g>
<g filter="url(#filter1_d_6_186)">
<path d="M35.2836 56.9555C32.4369 56.9555 29.4736 56.1621 26.3936 54.5755L27.6536 50.7955C29.7069 51.4488 31.3169 51.7755 32.4836 51.7755C35.8436 51.7755 37.5236 49.6755 37.5236 45.4755C37.5236 44.8221 36.5202 32.9221 34.5136 9.77545L51.1736 8.72545L47.2536 45.4055C46.4136 53.1055 42.4236 56.9555 35.2836 56.9555Z" fill="white"/>
</g>
<defs>
<filter id="filter0_d_6_186" x="0" y="0" width="83.9481" height="72.5" filterUnits="userSpaceOnUse" color-interpolation-filters="sRGB">
<feFlood flood-opacity="0" result="BackgroundImageFix"/>
<feColorMatrix in="SourceAlpha" type="matrix" values="0 0 0 0 0 0 0 0 0 0 0 0 0 0 0 0 0 0 127 0" result="hardAlpha"/>
<feOffset dy="4"/>
<feGaussianBlur stdDeviation="2"/>
<feComposite in2="hardAlpha" operator="out"/>
<feColorMatrix type="matrix" values="0 0 0 0 0 0 0 0 0 0 0 0 0 0 0 0 0 0 0.25 0"/>
<feBlend mode="normal" in2="BackgroundImageFix" result="effect1_dropShadow_6_186"/>
<feBlend mode="normal" in="SourceGraphic" in2="effect1_dropShadow_6_186" result="shape"/>
</filter>
<filter id="filter1_d_6_186" x="22.3936" y="8.72546" width="32.78" height="56.23" filterUnits="userSpaceOnUse" color-interpolation-filters="sRGB">
<feFlood flood-opacity="0" result="BackgroundImageFix"/>
<feColorMatrix in="SourceAlpha" type="matrix" values="0 0 0 0 0 0 0 0 0 0 0 0 0 0 0 0 0 0 127 0" result="hardAlpha"/>
<feOffset dy="4"/>
<feGaussianBlur stdDeviation="2"/>
<feComposite in2="hardAlpha" operator="out"/>
<feColorMatrix type="matrix" values="0 0 0 0 0 0 0 0 0 0 0 0 0 0 0 0 0 0 0.25 0"/>
<feBlend mode="normal" in2="BackgroundImageFix" result="effect1_dropShadow_6_186"/>
<feBlend mode="normal" in="SourceGraphic" in2="effect1_dropShadow_6_186" result="shape"/>
</filter>
</defs>
</svg>
